<?xml version="1.0" encoding="iso-8859-1"?>
<!-- Generator: Adobe Illustrator 19.0.0, SVG Export Plug-In . SVG Version: 6.00 Build 0)  -->
<svg version="1.1" id="Capa_1" xmlns="http://www.w3.org/2000/svg" xmlns:xlink="http://www.w3.org/1999/xlink" x="0px" y="0px"
	 viewBox="0 0 512 512" style="enable-background:new 0 0 512 512;" xml:space="preserve">
<g>
	<g>
		<path d="M466.964,172.431v-31.933c0-33.104-26.932-60.036-60.036-60.036H105.072c-33.104,0-60.036,26.932-60.036,60.036v31.933
			C19.167,179.109,0,202.643,0,230.569v170.932h45.036v30.036h30v-30.036h361.928v30.036h30v-30.036H512V230.569
			C512,202.643,492.833,179.109,466.964,172.431z M75.036,140.499c0-16.563,13.474-30.037,30.036-30.037h301.856
			c16.562,0,30.036,13.474,30.036,30.036v31.933c-25.869,6.678-45.036,30.212-45.036,58.138v10.828H120.072v-10.827
			c0-27.926-19.167-51.46-45.036-58.138V140.499z M391.928,271.397v30.048H271v-30.048H391.928z M241,271.397v30.048H120.072
			v-30.048H241z M482,371.501H30V230.569c0-16.562,13.474-30.036,30.036-30.036s30.036,13.474,30.036,30.036v100.876h331.855
			V230.569c0-16.562,13.474-30.036,30.036-30.036S482,214.007,482,230.569V371.501z"/>
	</g>
</g>
</svg>
