<?xml version="1.0" encoding="iso-8859-1"?>
<!-- Generator: Adobe Illustrator 19.0.0, SVG Export Plug-In . SVG Version: 6.00 Build 0)  -->
<svg version="1.1" id="Capa_1" xmlns="http://www.w3.org/2000/svg" xmlns:xlink="http://www.w3.org/1999/xlink" x="0px" y="0px"
	 viewBox="0 0 512 512" style="enable-background:new 0 0 512 512;" xml:space="preserve">
<g>
	<g>
		<path d="M0,75.862v330.239h30.024v30.036h30v-30.036h391.952v30.036h30v-30.036H512V75.862H0z M482,376.102H30v-270.24h452
			V376.102z"/>
	</g>
</g>
<g>
	<g>
		<rect x="361.49" y="135.91" width="30.02" height="30"/>
	</g>
</g>
<g>
	<g>
		<rect x="421.99" y="135.91" width="30.02" height="30"/>
	</g>
</g>
<g>
	<g>
		<rect x="361.49" y="195.961" width="30.02" height="30"/>
	</g>
</g>
<g>
	<g>
		<rect x="421.99" y="195.961" width="30.02" height="30"/>
	</g>
</g>
<g>
	<g>
		<rect x="361.49" y="256.01" width="30.02" height="30"/>
	</g>
</g>
<g>
	<g>
		<rect x="421.99" y="256.01" width="30.02" height="30"/>
	</g>
</g>
<g>
	<g>
		<rect x="361.49" y="316.05" width="90.52" height="30"/>
	</g>
</g>
<g>
	<g>
		<path d="M60,135.862v210.191h271.5V135.862H60z M301.5,316.054H90V165.862h211.5V316.054z"/>
	</g>
</g>
<g>
</g>
<g>
</g>
<g>
</g>
<g>
</g>
<g>
</g>
<g>
</g>
<g>
</g>
<g>
</g>
<g>
</g>
<g>
</g>
<g>
</g>
<g>
</g>
<g>
</g>
<g>
</g>
<g>
</g>
</svg>
