<?xml version="1.0" encoding="iso-8859-1"?>
<!-- Generator: Adobe Illustrator 19.0.0, SVG Export Plug-In . SVG Version: 6.00 Build 0)  -->
<svg version="1.1" id="Capa_1" xmlns="http://www.w3.org/2000/svg" xmlns:xlink="http://www.w3.org/1999/xlink" x="0px" y="0px"
	 viewBox="0 0 512 512" style="enable-background:new 0 0 512 512;" xml:space="preserve">
<g>
	<g>
		<path d="M411.92,199.936v-49.84h30.036v-30H411.92V90.048h30.024V0H70.056v90.048h30.024v109.888H40.032v90.049h30.783
			c5.222,51.292,36.93,94.861,81.185,116.794V512h208V406.779c44.255-21.934,75.963-65.502,81.185-116.794h30.783v-90.049H411.92z
			 M100.056,60.048V30h311.888v30.048H100.056z M381.92,150.096v49.84H130.08V90.048h251.84v30.048h-30.036v30H381.92z M330.001,482
			H330H182v-64.251c11.239,2.76,22.977,4.235,35.056,4.235h77.889c12.078,0,23.817-1.475,35.056-4.235V482z M294.944,391.984
			h-77.889c-59.433,0-108.656-44.544-116.042-102h309.972C403.6,347.44,354.377,391.984,294.944,391.984z M441.968,259.984H70.032
			v-30.049h371.936V259.984z"/>
	</g>
</g>
<g>
</g>
<g>
</g>
<g>
</g>
<g>
</g>
<g>
</g>
<g>
</g>
<g>
</g>
<g>
</g>
<g>
</g>
<g>
</g>
<g>
</g>
<g>
</g>
<g>
</g>
<g>
</g>
<g>
</g>
</svg>
