<?xml version="1.0" encoding="iso-8859-1"?>
<!-- Generator: Adobe Illustrator 19.0.0, SVG Export Plug-In . SVG Version: 6.00 Build 0)  -->
<svg version="1.1" id="Capa_1" xmlns="http://www.w3.org/2000/svg" xmlns:xlink="http://www.w3.org/1999/xlink" x="0px" y="0px"
	 viewBox="0 0 512 512" style="enable-background:new 0 0 512 512;" xml:space="preserve">
<g>
	<g>
		<path d="M451.952,331.88V131h-30v200.88H90.048V131h-30v200.88H0V512h512V331.88H451.952z M482,482H30V361.88h452V482z"/>
	</g>
</g>
<g>
	<g>
		<rect x="60.04" y="391.93" width="30.02" height="30"/>
	</g>
</g>
<g>
	<g>
		<rect x="120.08" y="391.93" width="30.02" height="30"/>
	</g>
</g>
<g>
	<g>
		<rect x="180.13" y="391.93" width="30.02" height="30"/>
	</g>
</g>
<g>
	<g>
		<rect x="301.84" y="421.95" width="150.12" height="30"/>
	</g>
</g>
<g>
	<g>
		<path d="M195.411,166.313l21.213,21.213c21.712-21.711,57.04-21.711,78.752,0l21.213-21.213
			C283.181,132.902,228.819,132.902,195.411,166.313z"/>
	</g>
</g>
<g>
	<g>
		<path d="M145.449,116.35l21.213,21.213c49.262-49.26,129.414-49.26,178.676,0l21.213-21.213
			C305.593,55.391,206.407,55.391,145.449,116.35z"/>
	</g>
</g>
<g>
	<g>
		<path d="M256,0C195.302,0,138.297,23.577,95.487,66.388L116.7,87.601c76.81-76.811,201.79-76.811,278.6,0l21.213-21.213
			C373.703,23.577,316.698,0,256,0z"/>
	</g>
</g>
<g>
</g>
<g>
</g>
<g>
</g>
<g>
</g>
<g>
</g>
<g>
</g>
<g>
</g>
<g>
</g>
<g>
</g>
<g>
</g>
<g>
</g>
<g>
</g>
<g>
</g>
<g>
</g>
<g>
</g>
</svg>
